<?xml version="1.0" encoding="UTF-8" standalone="no" ?>
<!DOCTYPE svg PUBLIC "-//W3C//DTD SVG 1.1//EN" "http://www.w3.org/Graphics/SVG/1.1/DTD/svg11.dtd">
<svg xmlns="http://www.w3.org/2000/svg" xmlns:xlink="http://www.w3.org/1999/xlink" version="1.1" width="526" height="350" viewBox="174.93 172.75 526 350" xml:space="preserve">
<desc>Created with Fabric.js 5.2.4</desc>
<defs>
</defs>
<rect x="0" y="0" width="100%" height="100%" fill="transparent"></rect>
<g transform="matrix(1 0 0 1 263 175)" id="00820fe6-a2a1-47d8-a995-030dc85eba36"  >
<rect style="stroke: none; stroke-width: 1; stroke-dasharray: none; stroke-linecap: butt; stroke-dashoffset: 0; stroke-linejoin: miter; stroke-miterlimit: 4; fill: rgb(255,255,255); fill-rule: nonzero; opacity: 1; visibility: hidden;" vector-effect="non-scaling-stroke"  x="-263" y="-175" rx="0" ry="0" width="526" height="350" />
</g>
<g transform="matrix(0 0 0 0 0 0)" id="fcbe8987-4ef0-4a64-b3db-91d03c637b29"  >
</g>
<g transform="matrix(0.32 0 0 0.32 406.66 299.79)"  >
<path style="stroke: none; stroke-width: 1; stroke-dasharray: none; stroke-linecap: butt; stroke-dashoffset: 0; stroke-linejoin: miter; stroke-miterlimit: 4; fill: rgb(230,231,232); fill-rule: nonzero; opacity: 1;" vector-effect="non-scaling-stroke"  transform=" translate(-180.24, -29.07)" d="M 213.77996 33.23929 L 146.695 33.23929 C 144.39358 33.23929 142.52107999999998 31.366799999999998 142.52107999999998 29.065369999999998 C 142.52107999999998 26.763939999999998 144.39358 24.89145 146.695 24.89145 L 213.77996 24.89145 C 216.08138 24.89145 217.95388 26.763939999999998 217.95388 29.065369999999998 C 217.95388 31.366799999999998 216.08138 33.23929 213.77996 33.23929 Z" stroke-linecap="round" />
</g>
<g transform="matrix(0.32 0 0 0.32 415.04 304.37)"  >
<path style="stroke: none; stroke-width: 1; stroke-dasharray: none; stroke-linecap: butt; stroke-dashoffset: 0; stroke-linejoin: miter; stroke-miterlimit: 4; fill: rgb(230,231,232); fill-rule: nonzero; opacity: 1;" vector-effect="non-scaling-stroke"  transform=" translate(-206.41, -43.19)" d="M 266.13329 47.3664 L 146.695 47.3664 C 144.39358 47.3664 142.52107999999998 45.49391 142.52107999999998 43.192479999999996 C 142.52107999999998 40.89104999999999 144.39358 39.018559999999994 146.695 39.018559999999994 L 266.13329 39.018559999999994 C 268.43471 39.018559999999994 270.30721 40.89104999999999 270.30721 43.192479999999996 C 270.30721 45.49391 268.43471 47.3664 266.13329 47.3664 L 266.13329 47.3664 Z" stroke-linecap="round" />
</g>
<g transform="matrix(0.32 0 0 0.32 415.04 308.91)"  >
<path style="stroke: none; stroke-width: 1; stroke-dasharray: none; stroke-linecap: butt; stroke-dashoffset: 0; stroke-linejoin: miter; stroke-miterlimit: 4; fill: rgb(230,231,232); fill-rule: nonzero; opacity: 1;" vector-effect="non-scaling-stroke"  transform=" translate(-206.41, -57.19)" d="M 266.13329 61.3664 L 146.695 61.3664 C 144.39358 61.3664 142.52107999999998 59.49391 142.52107999999998 57.192479999999996 C 142.52107999999998 54.89104999999999 144.39358 53.018559999999994 146.695 53.018559999999994 L 266.13329 53.018559999999994 C 268.43471 53.018559999999994 270.30721 54.89104999999999 270.30721 57.192479999999996 C 270.30721 59.49391 268.43471 61.3664 266.13329 61.3664 L 266.13329 61.3664 Z" stroke-linecap="round" />
</g>
<g transform="matrix(0.32 0 0 0.32 429.09 323.81)"  >
<path style="stroke: none; stroke-width: 1; stroke-dasharray: none; stroke-linecap: butt; stroke-dashoffset: 0; stroke-linejoin: miter; stroke-miterlimit: 4; fill: rgb(63,61,86); fill-rule: nonzero; opacity: 1;" vector-effect="non-scaling-stroke"  transform=" translate(-249.36, -103.52)" d="M 278.78484 134.01856 L 278.78484 132.01856 C 255.69956999999997 132.01856 235.54020999999997 113.16077000000001 230.18046999999996 86.89283 L 238.87858999999995 89.1305 C 234.67155999999994 85.14466 230.42137999999994 78.47199 227.78483999999995 73.01856 C 226.22764999999995 78.87298999999999 223.31901999999994 86.23022999999999 219.94346999999993 90.94104999999999 L 228.17338999999993 87.04248999999999 C 233.6458599999999 114.37097999999999 254.67167999999992 134.01855999999998 278.7848399999999 134.01855999999998 Z" stroke-linecap="round" />
</g>
<g transform="matrix(0.32 0 0 0.32 426.07 308.99)"  >
<path style="stroke: none; stroke-width: 1; stroke-dasharray: none; stroke-linecap: butt; stroke-dashoffset: 0; stroke-linejoin: miter; stroke-miterlimit: 4; fill: rgb(205,144,111); fill-rule: nonzero; opacity: 1;" vector-effect="non-scaling-stroke"  transform=" translate(-240.05, -57.48)" d="M 270.05257 57.47993 C 270.05257 59.685500000000005 268.25814 61.47993 266.05257 61.47993 L 214.05257 61.47993 C 211.847 61.47993 210.05257 59.685500000000005 210.05257 57.47993 C 210.05257 55.27436 211.847 53.47993 214.05257 53.47993 L 266.05257 53.47993 C 268.25814 53.47993 270.05257 55.27436 270.05257 57.47993 Z" stroke-linecap="round" />
</g>
<g transform="matrix(0.32 0 0 0.32 356.48 377.91)"  >
<path style="stroke: none; stroke-width: 1; stroke-dasharray: none; stroke-linecap: butt; stroke-dashoffset: 0; stroke-linejoin: miter; stroke-miterlimit: 4; fill: rgb(255,182,182); fill-rule: nonzero; opacity: 1;" vector-effect="non-scaling-stroke"  transform=" translate(-25.05, -270.36)" d="M 35.90386 280.29741 C 35.11226 277.54094000000003 33.75669 275.18984 32.142790000000005 273.51268 L 26.279130000000006 246.78278999999998 L 13.497970000000006 249.91385999999997 L 20.822190000000006 276.69154 C 20.340540000000008 278.95712999999995 20.436910000000005 281.66184999999996 21.228510000000007 284.41828999999996 C 23.036910000000006 290.71540999999996 27.788100000000007 294.89768999999995 31.840590000000006 293.75971999999996 C 35.89309000000001 292.62174999999996 37.712270000000004 286.5945 35.903870000000005 280.29740999999996 L 35.90386 280.29740999999996 Z" stroke-linecap="round" />
</g>
<g transform="matrix(0.32 0 0 0.32 353.86 349.52)"  >
<path style="stroke: none; stroke-width: 1; stroke-dasharray: none; stroke-linecap: butt; stroke-dashoffset: 0; stroke-linejoin: miter; stroke-miterlimit: 4; fill: rgb(205,144,111); fill-rule: nonzero; opacity: 1;" vector-effect="non-scaling-stroke"  transform=" translate(-17.07, -183.47)" d="M 34.13565 104.95641 C 34.13565 104.95641 20.33072 104.47993000000001 12.33072 113.47993000000001 C 3.16516 124.67631 -3.09991 168.5471 1.6033 171.50123 L 14.345970000000001 261.98659 L 32.5168 259.48972999999995 L 27.853310000000004 150.92081999999994 L 34.135650000000005 104.95635999999993 L 34.135650000000005 104.95640999999993 Z" stroke-linecap="round" />
</g>
<g transform="matrix(0.32 0 0 0.32 371.28 391.5)"  >
<polygon style="stroke: none; stroke-width: 1; stroke-dasharray: none; stroke-linecap: butt; stroke-dashoffset: 0; stroke-linejoin: miter; stroke-miterlimit: 4; fill: rgb(0,184,148); fill-rule: nonzero; opacity: 1;" vector-effect="non-scaling-stroke"  points="56.04,-55.22 52.73,55.22 5.23,55.22 3.31,12.65 -5.13,55.22 -56.04,55.22 -49.69,-17.96 -43.13,-33.35 -38.69,-43.78 56.04,-55.22 " />
</g>
<g transform="matrix(0.32 0 0 0.32 372.28 352.23)"  >
<path style="stroke: none; stroke-width: 1; stroke-dasharray: none; stroke-linecap: butt; stroke-dashoffset: 0; stroke-linejoin: miter; stroke-miterlimit: 4; fill: rgb(205,144,111); fill-rule: nonzero; opacity: 1;" vector-effect="non-scaling-stroke"  transform=" translate(-74.33, -192.19)" d="M 89.60332 86.91724 L 56.60332 84.91724 L 45.60330999999999 98.91725000000001 C 36.10303999999999 100.9514 27.522149999999993 103.57746000000002 21.603299999999994 107.91725000000001 C 23.019379999999995 149.84315 19.908659999999994 204.35878000000002 32.60332999999999 214.91725000000002 L 21.330729999999992 294.47994000000006 C 21.330729999999992 294.47994000000006 25.876679999999993 290.58525000000003 33.47042999999999 291.96025000000003 C 36.09385999999999 292.43528000000003 39.260749999999994 298.34511000000003 42.48438999999999 298.70322000000004 C 67.25407999999999 301.45486000000005 107.42177 298.62511000000006 127.33072999999999 257.47994000000006 L 119.60332999999999 197.91726000000006 L 121.60331999999998 110.91725000000005 C 115.35096999999999 105.97496000000005 107.57758999999999 102.76301000000005 98.60331999999998 100.91725000000005 L 89.60332999999999 86.91726000000006 L 89.60332999999999 86.91724000000005 Z" stroke-linecap="round" />
</g>
<g transform="matrix(0.32 0 0 0.32 395.72 315.55)"  >
<path style="stroke: none; stroke-width: 1; stroke-dasharray: none; stroke-linecap: butt; stroke-dashoffset: 0; stroke-linejoin: miter; stroke-miterlimit: 4; fill: rgb(255,182,182); fill-rule: nonzero; opacity: 1;" vector-effect="non-scaling-stroke"  transform=" translate(-146.12, -78.02)" d="M 153.1336 62.57842 C 153.49166 66.04538 153.03698 69.30576 151.98995 71.91985 L 157.48708 104.73174 L 141.79735 106.89075 L 137.91034 73.37389999999999 C 136.35111999999998 71.02897999999999 135.2397 67.93033 134.88164999999998 64.46337999999999 C 134.06366999999997 56.54313999999999 137.48641999999998 49.700589999999984 142.52656 49.180069999999986 C 147.5667 48.65954999999999 152.31562 54.65815999999999 153.1336 62.57839999999999 L 153.1336 62.57841999999999 L 153.13358 62.57841999999999 Z" stroke-linecap="round" />
</g>
<g transform="matrix(0.32 0 0 0.32 390.19 333.04)"  >
<path style="stroke: none; stroke-width: 1; stroke-dasharray: none; stroke-linecap: butt; stroke-dashoffset: 0; stroke-linejoin: miter; stroke-miterlimit: 4; fill: rgb(205,144,111); fill-rule: nonzero; opacity: 1;" vector-effect="non-scaling-stroke"  transform=" translate(-130.96, -132.28)" d="M 100.97056 113.42402 C 99.32781 115.84782 99.78546 118.5723 99.39324 121.84568 C 97.72817 135.7421 124.35766000000001 176.80563 142.78353 181.53365 C 145.20144000000002 182.15407 146.57883 184.76223 149.01929 185.28676 L 149.01931000000002 185.28676 C 156.24886 186.84061999999997 162.98003000000003 181.10231 162.58981000000003 173.71794 L 157.58470000000003 79.00992 L 136.55751000000004 86.18195999999999 L 137.90339000000003 135.35252 C 137.76936000000003 125.166 128.41581000000002 114.79399 121.33073000000003 110.47993 C 121.33073000000003 110.47993 106.97973000000003 104.55776999999999 100.97057000000004 113.42401 Z" stroke-linecap="round" />
</g>
<g transform="matrix(0.32 0 0 0.32 373.08 307.52)"  >
<circle style="stroke: none; stroke-width: 1; stroke-dasharray: none; stroke-linecap: butt; stroke-dashoffset: 0; stroke-linejoin: miter; stroke-miterlimit: 4; fill: rgb(255,182,182); fill-rule: nonzero; opacity: 1;" vector-effect="non-scaling-stroke"  cx="0" cy="0" r="29.06773" />
</g>
<g transform="matrix(0.32 0 0 0.32 372.65 305.6)"  >
<path style="stroke: none; stroke-width: 1; stroke-dasharray: none; stroke-linecap: butt; stroke-dashoffset: 0; stroke-linejoin: miter; stroke-miterlimit: 4; fill: rgb(0,0,0); fill-rule: nonzero; opacity: 1;" vector-effect="non-scaling-stroke"  transform=" translate(-75.26, -47.4)" d="M 103.60332 31.91723 C 103.35332 31.97729 107.42963999999999 28.00407 107.60332 27.91723 C 111.60332 25.91723 107.49327 45.46723 104.60332 44.91722 C 97.49327 43.56718 94.42332999999999 40.887190000000004 91.66332 47.57719 C 90.8933 49.437180000000005 90.41332 51.53721 88.91332 52.86723 C 86.85332 54.67723 83.43334 54.5272 81.75335 56.68718 C 80.40331 58.427229999999994 80.79333 60.98723 81.79333 62.94719 C 82.79333 64.91722 84.31335 66.5872 85.22332 68.59721 C 86.24334 70.85722 81.8933 78.04722000000001 80.23333 82.08720000000001 L 80.23333 82.09721 L 80.22345999999999 82.12088 C 79.78236999999999 83.18057 78.73418999999998 80.12794 77.62753999999998 79.82323 C 76.30330999999998 79.45859 74.35246999999998 82.58543999999999 72.24331999999998 82.0172 C 72.23330999999999 82.0172 72.22329999999998 82.00719000000001 72.21328999999999 82.00719000000001 C 70.20327999999999 81.44719 67.96328999999999 80.84722000000001 65.74331999999998 80.24718000000001 L 65.73330999999999 80.24718000000001 C 59.48330999999999 78.54723000000001 57.90328999999999 80.98723000000001 57.603309999999986 80.91722000000001 L 53.723309999999984 76.85722000000001 C 52.39174999999998 75.88772000000002 52.54224999999998 72.75782000000001 51.603309999999986 71.91722000000001 C 50.83542999999999 71.22975000000001 48.92111999999999 72.81831000000001 48.356929999999984 72.15752000000002 C 45.59055999999998 68.91751000000002 44.95406999999999 65.67630000000003 43.32327999999998 59.27721000000002 C 41.833289999999984 53.427230000000016 38.74331999999998 35.917220000000015 45.093299999999985 35.12719000000001 C 51.083289999999984 34.37719000000001 46.70328999999999 26.037220000000012 52.73330999999999 26.347220000000014 C 52.373319999999985 24.827200000000015 53.04330999999999 23.197200000000013 54.13332999999999 22.077200000000015 C 55.213289999999986 20.947200000000016 56.653289999999984 20.247180000000014 58.10329999999999 19.647210000000015 C 65.25331999999999 16.727230000000016 64.06331999999999 14.217280000000017 71.60329999999999 15.917230000000016 C 72.35329999999999 14.867240000000017 81.97067999999999 12.129900000000017 83.33072999999999 12.479940000000017 C 83.43070999999999 12.499900000000016 81.23329999999999 16.767270000000018 86.60329999999999 15.917230000000018 C 86.40328999999998 17.147270000000017 89.33072999999999 14.479940000000017 89.60329999999999 18.917230000000018 C 95.33072999999999 15.479940000000017 98.41329999999999 23.707210000000018 98.60329999999999 24.917230000000018 C 98.85329999999999 26.42724000000002 96.57327 25.657220000000017 98.09329 25.887200000000018 C 98.99331 26.027210000000018 100.53329 27.85723000000002 100.38333 28.767200000000017 C 101.03329 27.887200000000018 101.68332 27.017200000000017 102.34329 26.137200000000018 C 102.46329 26.14721000000002 102.57327 26.167230000000018 102.69333 26.18719000000002 C 105.73331 26.76721000000002 102.24811 36.70515000000002 102.37332 33.607230000000015 C 102.6033 27.917230000000014 106.63327000000001 31.247240000000016 103.6033 31.917230000000014 L 103.60332000000001 31.917230000000014 Z" stroke-linecap="round" />
</g>
<g transform="matrix(0.32 0 0 0.32 498.81 306.85)"  >
<path style="stroke: none; stroke-width: 1; stroke-dasharray: none; stroke-linecap: butt; stroke-dashoffset: 0; stroke-linejoin: miter; stroke-miterlimit: 4; fill: rgb(1,77,68); fill-rule: nonzero; opacity: 1;" vector-effect="non-scaling-stroke"  transform=" translate(-464.27, -51.17)" d="M 474.36993 25.95775 C 473.29589 34.78505 472.12243 43.600260000000006 470.84985 52.40115 C 470.33294 55.975660000000005 469.78643 59.59564 468.34832 62.90867 C 467.36669 65.17011 465.99175 67.23521 464.62438 69.28655 C 463.0086 71.71062 461.36602 74.16559000000001 459.17156 76.08175 C 456.9771 77.99790999999999 454.12664 79.34339 451.2221 79.1182 C 458.92852 73.93062 464.10790000000003 65.15661 464.92626 55.90294 C 465.31096 51.55319 464.78313 47.18079 464.68188000000004 42.81523 C 464.58062 38.44968 464.94604000000004 33.932159999999996 466.96020000000004 30.05771 C 468.97436000000005 26.183260000000004 472.95306000000005 23.08182 477.31835000000007 23.19196 L 474.3698600000001 25.95775 L 474.3699200000001 25.95775 Z" stroke-linecap="round" />
</g>
<g transform="matrix(0.32 0 0 0.32 479.1 353.99)"  >
<path style="stroke: none; stroke-width: 1; stroke-dasharray: none; stroke-linecap: butt; stroke-dashoffset: 0; stroke-linejoin: miter; stroke-miterlimit: 4; fill: rgb(160,97,106); fill-rule: nonzero; opacity: 1;" vector-effect="non-scaling-stroke"  transform=" translate(-403.63, -196.53)" d="M 396.26787 214.23064 L 396.26787 214.23064 C 389.9973 219.31642 382.29051000000004 220.20443 379.05412 216.2141 C 375.81773 212.22377 378.27733 204.8662 384.54783000000003 199.78045 C 387.29264 197.55425 390.31266000000005 196.13256 393.11253000000005 195.57211 L 419.9528 174.35559 L 429.64091 187.16305 L 402.15336 206.71899 C 401.02708 209.34283 399.01261 212.00441999999998 396.2678 214.23062 L 396.26774 214.23062 L 396.26786 214.23065 Z" stroke-linecap="round" />
</g>
<g transform="matrix(0.32 0 0 0.32 492.11 343.24)"  >
<path style="stroke: none; stroke-width: 1; stroke-dasharray: none; stroke-linecap: butt; stroke-dashoffset: 0; stroke-linejoin: miter; stroke-miterlimit: 4; fill: rgb(205,144,111); fill-rule: nonzero; opacity: 1;" vector-effect="non-scaling-stroke"  transform=" translate(-443.96, -163.61)" d="M 401.33776 185.42794 L 441.33072 147.47994 L 445.33072 144.47994 C 445.33072 144.47994 468.28826 122.11346 474.23302 121.60125 C 476.75084 121.38476999999999 479.26873 122.01244 481.38982 123.39043 C 484.81669999999997 125.61251 486.59148 129.27026999999998 486.59148 132.95686999999998 C 486.59148 136.03743999999998 485.35057 139.1325 482.81102 141.41224999999997 L 446.19743 174.28150999999997 L 430.62131999999997 188.26319999999998 L 411.25034999999997 205.65737 L 409.28081 201.64611 L 402.62181 188.05401 L 401.33763 185.42794 L 401.33763 185.42797000000002 L 401.33774999999997 185.42794 Z" stroke-linecap="round" />
</g>
<g transform="matrix(0.32 0 0 0.32 504.46 351.49)"  >
<path style="stroke: none; stroke-width: 1; stroke-dasharray: none; stroke-linecap: butt; stroke-dashoffset: 0; stroke-linejoin: miter; stroke-miterlimit: 4; fill: rgb(160,97,106); fill-rule: nonzero; opacity: 1;" vector-effect="non-scaling-stroke"  transform=" translate(-481.98, -188.93)" d="M 486.85284 159.74625 L 446.80951000000005 172.01088000000001 C 453.51361 173.89943000000002 456.32056000000006 214.75044000000003 450.08160000000004 216.01936 C 450.08160000000004 216.01936 516.4462900000001 220.73954 512.8250700000001 216.01936 C 508.4107600000001 210.26536000000002 514.33099 172.0276 517.1537400000001 172.01088000000001 L 486.85284000000007 159.74625 Z" stroke-linecap="round" />
</g>
<g transform="matrix(0.32 0 0 0.32 503.82 383.85)"  >
<path style="stroke: none; stroke-width: 1; stroke-dasharray: none; stroke-linecap: butt; stroke-dashoffset: 0; stroke-linejoin: miter; stroke-miterlimit: 4; fill: rgb(0,184,148); fill-rule: nonzero; opacity: 1;" vector-effect="non-scaling-stroke"  transform=" translate(-480.31, -289.39)" d="M 540.13634 367.92046 L 536.63634 325.68047 C 536.63634 310.57048000000003 535.6563600000001 296.92046 534.08635 284.75048000000004 C 527.79637 235.90047000000004 512.0263500000001 210.86050000000006 512.0263500000001 210.86050000000006 L 453.0263500000001 210.86050000000006 C 452.9463300000001 210.95050000000006 452.8663800000001 211.02050000000006 452.7863600000001 211.11050000000006 L 452.7763500000001 211.12051000000005 C 438.8563700000001 225.75051000000005 431.6163800000001 262.54049000000003 428.3963500000001 284.7505100000001 C 426.8663200000001 295.3205200000001 426.2463300000001 302.59051000000005 426.2463300000001 302.59051000000005 L 420.4763100000001 353.8705100000001 L 424.64629000000014 367.92050000000006 L 458.9763100000001 367.92050000000006 L 458.4363300000001 364.91049000000004 L 480.5263600000001 284.75049 L 480.7963800000001 283.77048 L 481.0363700000001 284.75049 L 501.5163500000001 367.9205 L 540.1363500000001 367.9205 L 540.1363500000001 367.92047 Z" stroke-linecap="round" />
</g>
<g transform="matrix(0.32 0 0 0.32 505.41 338.2)"  >
<path style="stroke: none; stroke-width: 1; stroke-dasharray: none; stroke-linecap: butt; stroke-dashoffset: 0; stroke-linejoin: miter; stroke-miterlimit: 4; fill: rgb(205,144,111); fill-rule: nonzero; opacity: 1;" vector-effect="non-scaling-stroke"  transform=" translate(-485.04, -148.38)" d="M 454.23546 135.37935 L 466.70274 110.21220999999998 L 477.20768 91.92797999999999 L 485.70274 83.27059 L 508.95152 83.27059 L 511.11589000000004 91.92797999999999 L 524.10197 99.14246999999999 L 528.69529 135.21498 L 512.33071 213.47993 C 492.85151999999994 197.60804 452.70273999999995 193.21221 452.70273999999995 193.21221 L 446.19742999999994 174.28148 L 441.89762999999994 151.47644 L 441.3781599999999 148.74937 L 454.23545999999993 135.37931 L 454.23545999999993 135.37931 L 454.23545999999993 135.37934 Z" stroke-linecap="round" />
</g>
<g transform="matrix(0.32 0 0 0.32 499.8 346.15)"  >
<path style="stroke: none; stroke-width: 1; stroke-dasharray: none; stroke-linecap: butt; stroke-dashoffset: 0; stroke-linejoin: miter; stroke-miterlimit: 4; fill: rgb(160,97,106); fill-rule: nonzero; opacity: 1;" vector-effect="non-scaling-stroke"  transform=" translate(-467.54, -172.21)" d="M 452.73968 180.90541 L 452.73968 180.90541 C 444.66925000000003 180.67640999999998 438.24504 176.32748999999998 438.39077000000003 171.19171999999998 C 438.53648000000004 166.05601 445.19697 162.07826999999997 453.26737 162.30732999999998 C 456.80009 162.40756 460.01724 163.29736999999997 462.50608000000005 164.69696 L 496.69064000000003 166.09627 L 495.69238 182.12418 L 462.09906 179.04354999999998 C 459.53486 180.29968 456.27241000000004 181.00565999999998 452.73973 180.90537999999998 L 452.73972000000003 180.90537999999998 L 452.73968 180.90542 Z" stroke-linecap="round" />
</g>
<g transform="matrix(0.32 0 0 0.32 512.26 336.74)"  >
<path style="stroke: none; stroke-width: 1; stroke-dasharray: none; stroke-linecap: butt; stroke-dashoffset: 0; stroke-linejoin: miter; stroke-miterlimit: 4; fill: rgb(205,144,111); fill-rule: nonzero; opacity: 1;" vector-effect="non-scaling-stroke"  transform=" translate(-506.21, -143.56)" d="M 496.45654 126.19796 L 528.70275 158.21222 L 472.53484000000003 163.96402 L 459.48183000000006 182.32419000000002 L 537.7702300000001 184.92001000000002 C 544.83374 187.43550000000002 552.3577200000001 182.55393 552.9390700000001 175.07846 L 552.9390700000001 175.07843 C 553.1353300000002 172.55422 537.0516700000002 108.50632 527.3149200000001 102.56031 C 515.9030600000001 95.5913 496.45654000000013 126.19796 496.45654000000013 126.19796 L 502.82598000000013 115.59464 L 496.45654000000013 126.19796 Z" stroke-linecap="round" />
</g>
<g transform="matrix(0.01 -0.32 0.32 0.01 508.44 307.16)"  >
<circle style="stroke: none; stroke-width: 1; stroke-dasharray: none; stroke-linecap: butt; stroke-dashoffset: 0; stroke-linejoin: miter; stroke-miterlimit: 4; fill: rgb(160,97,106); fill-rule: nonzero; opacity: 1;" vector-effect="non-scaling-stroke"  cx="0" cy="0" r="26.33295" />
</g>
<g transform="matrix(0.32 0 0 0.32 513.03 315.03)"  >
<path style="stroke: none; stroke-width: 1; stroke-dasharray: none; stroke-linecap: butt; stroke-dashoffset: 0; stroke-linejoin: miter; stroke-miterlimit: 4; fill: rgb(20,20,20); fill-rule: nonzero; opacity: 1;" vector-effect="non-scaling-stroke"  transform=" translate(-508.51, -76.87)" d="M 550.33072 133.47993 C 549.67075 135.97993 544.5307300000001 137.26990999999998 543.33072 140.47993 C 539.51071 142.65992 541.58072 124.84993 540.04074 123.67993999999999 C 538.85074 122.78992999999998 538.5307300000001 124.93988999999999 538.26071 123.08990999999999 C 537.24069 116.14990999999999 530.57071 117.69989999999999 525.63071 116.5799 C 525.0707100000001 115.48993 524.64072 114.42993999999999 524.36075 113.39990999999999 C 523.86075 111.53992 521.58072 110.8899 520.2307500000001 112.25989999999999 C 519.6207 111.71991999999999 519.1807 109.80988999999998 518.75071 107.89990999999999 C 518.4407100000001 106.50989999999999 518.13071 105.11993999999999 517.7707300000001 104.23993999999999 L 514.33073 96.47993 L 515.44072 102.2599 C 513.19072 101.4499 510.92076000000003 102.28993 509.61076 99.5099 C 507.93071000000003 95.93989 507.26072000000005 91.7599 508.48076000000003 88.0099 C 509.59075 84.60994 511.46074000000004 77.79994 513.57073 72.15992 C 511.18072 73.8899 508.31072 75.14991 504.98076000000003 75.77992 C 506.16075 73.53993 507.36076 71.2599 507.86076 68.76991000000001 C 508.35075 66.27992 508.0507 63.50990000000001 506.47075 61.52992000000001 C 505.17076000000003 59.89992000000001 503.25072 60.30989000000001 501.63072 58.99989000000001 C 500.37071 57.97993000000001 499.28074 55.36995000000001 498.52073 53.939890000000005 C 501.76072 64.70991000000001 504.21073 76.14991 500.09074000000004 86.42994 C 497.24070000000006 93.54994 491.24070000000006 99.33991 484.04075000000006 101.96992 C 487.87071000000003 99.22993 491.6107600000001 96.30989 494.48075000000006 92.58992 C 497.55070000000006 88.59993 499.55070000000006 83.55989000000001 498.9407100000001 78.55989000000001 C 497.98075000000006 70.70991000000001 483.42075000000006 45.87990000000001 481.6307100000001 40.99989000000001 C 482.61075000000005 45.76991000000001 482.23075000000006 49.489940000000004 479.65073000000007 51.539930000000005 C 478.98075000000006 44.61995 471.4407100000001 45.24989000000001 467.33072000000004 42.47993 C 467.33072000000004 42.47993 464.15073000000007 24.509900000000002 471.61075000000005 24.399910000000002 C 475.21073000000007 24.34992 478.98075000000006 15.889900000000003 482.25070000000005 14.379890000000001 C 487.47073000000006 11.969920000000002 490.67074 13.609930000000002 496.46072000000004 13.789920000000002 C 502.24069000000003 13.959900000000003 507.79074 16.449890000000003 511.32071 21.019900000000003 C 513.17075 23.409910000000004 513.85074 21.509890000000002 516.63071 22.999880000000005 C 519.27072 24.409910000000004 521.05069 23.099920000000004 524.04074 23.189880000000006 C 530.0307300000001 23.349910000000005 535.84073 26.549930000000007 539.2007100000001 31.499880000000005 C 542.5607000000001 36.459900000000005 544.6307 35.999880000000005 543.30069 43.669920000000005 C 543.2807300000001 43.759890000000006 543.2807300000001 43.93988 543.30069 44.209900000000005 C 544.0307300000001 56.28992 542.16074 68.3999 537.3707 79.5199 C 535.8907200000001 82.93988 543.13008 86.46974 543.12008 90.73976 C 543.1100700000001 95.69978 535.1207 100.21991 535.86076 102.33991 C 537.98076 112.54993 549.8907300000001 110.27991 547.08073 127.36994 C 546.8507500000001 128.75989 550.7707300000001 131.80988 550.33073 133.47993 Z" stroke-linecap="round" />
</g>
<g transform="matrix(0.32 0 0 0.32 503.18 323.52)"  >
<path style="stroke: none; stroke-width: 1; stroke-dasharray: none; stroke-linecap: butt; stroke-dashoffset: 0; stroke-linejoin: miter; stroke-miterlimit: 4; fill: rgb(1,77,68); fill-rule: nonzero; opacity: 1;" vector-effect="non-scaling-stroke"  transform=" translate(-477.62, -102.27)" d="M 477.37841 102.21068 C 477.59837999999996 102.14072999999999 477.81841 102.06072 478.03837999999996 101.97068999999999 C 477.75840999999997 102.17071999999999 477.48839 102.3607 477.20841999999993 102.56071999999999 L 477.37839999999994 102.21067999999998 Z" stroke-linecap="round" />
</g>
<g transform="matrix(0.32 0 0 0.32 514.61 295.67)"  >
<path style="stroke: none; stroke-width: 1; stroke-dasharray: none; stroke-linecap: butt; stroke-dashoffset: 0; stroke-linejoin: miter; stroke-miterlimit: 4; fill: rgb(248,90,64); fill-rule: nonzero; opacity: 1;" vector-effect="non-scaling-stroke"  transform=" translate(-512.91, -16.45)" d="M 514.47042 17.96025 C 511.60591999999997 18.385939999999998 508.69588 13.633379999999999 510.32229 7.042709999999998 C 513.8666000000001 12.462269999999997 515.67828 18.563339999999997 515.96337 25.264879999999998 L 514.05321 25.856679999999997 L 514.47041 17.96025 Z" stroke-linecap="round" />
</g>
<g transform="matrix(0.32 0 0 0.32 517.4 296.34)"  >
<path style="stroke: none; stroke-width: 1; stroke-dasharray: none; stroke-linecap: butt; stroke-dashoffset: 0; stroke-linejoin: miter; stroke-miterlimit: 4; fill: rgb(248,90,64); fill-rule: nonzero; opacity: 1;" vector-effect="non-scaling-stroke"  transform=" translate(-521.57, -18.45)" d="M 529.10567 11.80848 C 527.1509 18.73512 517.22396 23.37077 515.47042 20.96024 L 515.26977 25.090889999999998 L 514.04254 23.51204 C 517.60284 18.21763 522.45581 14.156149999999998 529.10559 11.80848 L 529.10568 11.80848 Z" stroke-linecap="round" />
</g>
<g transform="matrix(0.32 0 0 0.32 461.3 354.73)"  >
<path style="stroke: none; stroke-width: 1; stroke-dasharray: none; stroke-linecap: butt; stroke-dashoffset: 0; stroke-linejoin: miter; stroke-miterlimit: 4; fill: rgb(230,231,232); fill-rule: nonzero; opacity: 1;" vector-effect="non-scaling-stroke"  transform=" translate(-348.84, -198.59)" d="M 311.12087 198.59383 C 311.12087 196.29241 312.99337 194.41991 315.29479000000003 194.41991 L 382.37975000000006 194.41991 C 384.68117000000007 194.41991 386.55367000000007 196.29241 386.55367000000007 198.59383 C 386.55367000000007 200.89525 384.68117000000007 202.76775 382.37975000000006 202.76775 L 315.29479000000003 202.76775 C 312.99337 202.76775 311.12087 200.89525 311.12087 198.59383 Z" stroke-linecap="round" />
</g>
<g transform="matrix(0.32 0 0 0.32 461.3 363.8)"  >
<path style="stroke: none; stroke-width: 1; stroke-dasharray: none; stroke-linecap: butt; stroke-dashoffset: 0; stroke-linejoin: miter; stroke-miterlimit: 4; fill: rgb(230,231,232); fill-rule: nonzero; opacity: 1;" vector-effect="non-scaling-stroke"  transform=" translate(-348.84, -226.59)" d="M 311.12087 226.59383 C 311.12087 224.29241 312.99337 222.41991 315.29479000000003 222.41991 L 382.37975000000006 222.41991 C 384.68117000000007 222.41991 386.55367000000007 224.29241 386.55367000000007 226.59383 C 386.55367000000007 228.89525 384.68117000000007 230.76775 382.37975000000006 230.76775 L 315.29479000000003 230.76775 C 312.99337 230.76775 311.12087 228.89525 311.12087 226.59383 Z" stroke-linecap="round" />
</g>
<g transform="matrix(0.32 0 0 0.32 452.71 359.31)"  >
<path style="stroke: none; stroke-width: 1; stroke-dasharray: none; stroke-linecap: butt; stroke-dashoffset: 0; stroke-linejoin: miter; stroke-miterlimit: 4; fill: rgb(230,231,232); fill-rule: nonzero; opacity: 1;" vector-effect="non-scaling-stroke"  transform=" translate(-322.66, -212.72)" d="M 262.94143 216.89486 C 260.64001 216.89486 258.76751 215.02236 258.76751 212.72093999999998 C 258.76751 210.41951999999998 260.64001 208.54701999999997 262.94143 208.54701999999997 L 382.37972 208.54701999999997 C 384.68114 208.54701999999997 386.55364000000003 210.41951999999998 386.55364000000003 212.72093999999998 C 386.55364000000003 215.02236 384.68114 216.89486 382.37972 216.89486 L 262.94143 216.89486 Z" stroke-linecap="round" />
</g>
<g transform="matrix(0.32 0 0 0.32 437.48 342.26)"  >
<path style="stroke: none; stroke-width: 1; stroke-dasharray: none; stroke-linecap: butt; stroke-dashoffset: 0; stroke-linejoin: miter; stroke-miterlimit: 4; fill: rgb(63,61,86); fill-rule: nonzero; opacity: 1;" vector-effect="non-scaling-stroke"  transform=" translate(-275.25, -160.47)" d="M 254.06191 176.94701 L 245.83199000000002 173.04845 C 249.20754000000002 177.75927000000001 252.11617 185.1165 253.67336000000003 190.97094 C 256.3099 185.51751000000002 260.56008 178.84484 264.76711 174.859 L 256.06899 177.09667000000002 C 261.42873 150.82873 281.58808999999997 131.97094 304.67336 131.97094 L 304.67336 129.97094 C 280.5602 129.97094 259.53438 149.61852000000002 254.06191 176.94701 Z" stroke-linecap="round" />
</g>
<g transform="matrix(0.32 0 0 0.32 434.47 359.39)"  >
<path style="stroke: none; stroke-width: 1; stroke-dasharray: none; stroke-linecap: butt; stroke-dashoffset: 0; stroke-linejoin: miter; stroke-miterlimit: 4; fill: rgb(205,144,111); fill-rule: nonzero; opacity: 1;" vector-effect="non-scaling-stroke"  transform=" translate(-265.94, -212.97)" d="M 291.94109 216.97094 L 239.94108999999997 216.97094 C 237.73551999999998 216.97094 235.94108999999997 215.17651 235.94108999999997 212.97094 C 235.94108999999997 210.76537000000002 237.73551999999998 208.97094 239.94108999999997 208.97094 L 291.94109 208.97094 C 294.14666 208.97094 295.94109 210.76537000000002 295.94109 212.97094 C 295.94109 215.17651 294.14666 216.97094 291.94109 216.97094 Z" stroke-linecap="round" />
</g>
<g transform="matrix(0.05 -0.32 0.32 0.05 442.85 333.42)"  >
<circle style="stroke: none; stroke-width: 1; stroke-dasharray: none; stroke-linecap: butt; stroke-dashoffset: 0; stroke-linejoin: miter; stroke-miterlimit: 4; fill: rgb(63,61,86); fill-rule: nonzero; opacity: 1;" vector-effect="non-scaling-stroke"  cx="0" cy="0" r="15.65737" />
</g>
<g transform="matrix(0.32 0 0 0.32 415.34 293.47)"  >
<circle style="stroke: none; stroke-width: 1; stroke-dasharray: none; stroke-linecap: butt; stroke-dashoffset: 0; stroke-linejoin: miter; stroke-miterlimit: 4; fill: rgb(230,231,232); fill-rule: nonzero; opacity: 1;" vector-effect="non-scaling-stroke"  cx="0" cy="0" r="9.65737" />
</g>
<g transform="matrix(0.32 0 0 0.32 451.96 347.59)"  >
<circle style="stroke: none; stroke-width: 1; stroke-dasharray: none; stroke-linecap: butt; stroke-dashoffset: 0; stroke-linejoin: miter; stroke-miterlimit: 4; fill: rgb(230,231,232); fill-rule: nonzero; opacity: 1;" vector-effect="non-scaling-stroke"  cx="0" cy="0" r="9.65737" />
</g>
<g transform="matrix(0 0 0 0 263 0)"  >
<g style=""   >
</g>
</g>
<g transform="matrix(0 0 0 0 263 0)"  >
<g style=""   >
</g>
</g>
<g transform="matrix(0 0 0 0 263 0)"  >
<g style=""   >
</g>
</g>
<g transform="matrix(0 0 0 0 263 0)"  >
<g style=""   >
</g>
</g>
<g transform="matrix(0 0 0 0 263 0)"  >
<g style=""   >
</g>
</g>
<g transform="matrix(0 0 0 0 0 0)"  >
<g style=""   >
</g>
</g>
<g transform="matrix(0 0 0 0 0 0)"  >
<g style=""   >
</g>
</g>
<g transform="matrix(0 0 0 0 0 0)"  >
<g style=""   >
</g>
</g>
<g transform="matrix(0 0 0 0 0 0)"  >
<g style=""   >
</g>
</g>
<g transform="matrix(0 0 0 0 0 0)"  >
<g style=""   >
</g>
</g>
<g transform="matrix(0 0 0 0 0 0)"  >
<g style=""   >
</g>
</g>
<g transform="matrix(0 0 0 0 0 0)"  >
<g style=""   >
</g>
</g>
<g transform="matrix(0 0 0 0 0 0)"  >
<g style=""   >
</g>
</g>
<g transform="matrix(0 0 0 0 0 0)"  >
<g style=""   >
</g>
</g>
</svg>